<?xml version="1.0" encoding="utf-8"?>
<!-- Generator: Adobe Illustrator 28.4.1, SVG Export Plug-In . SVG Version: 6.00 Build 0)  -->
<svg version="1.1" id="Layer_1" xmlns="http://www.w3.org/2000/svg" xmlns:xlink="http://www.w3.org/1999/xlink" x="0px" y="0px"
	 viewBox="0 0 500 500" style="enable-background:new 0 0 500 500;" xml:space="preserve">
<style type="text/css">
	.st0{fill:url(#SVGID_1_);}
	.st1{fill:url(#SVGID_00000054255370601147124020000018098299718378139810_);}
	.st2{fill:url(#SVGID_00000109746411866817004730000000911075218343265416_);}
	.st3{fill:url(#SVGID_00000144338650644865087440000007553677017858065318_);}
	.st4{fill:url(#SVGID_00000036219580191100268800000006743966356720560309_);}
	.st5{fill:url(#SVGID_00000039130218101079536030000009251239279233228724_);}
	.st6{fill:url(#SVGID_00000181088009709011801760000006959237052613831086_);}
	.st7{fill:url(#SVGID_00000054230364514884134850000004306103593253847946_);}
	.st8{fill:url(#SVGID_00000057118260122984062670000009505030739748308671_);}
	.st9{fill:url(#SVGID_00000060749785798016527030000003563975145932130471_);}
	.st10{fill:url(#SVGID_00000038403312388097212130000006613149207347658687_);}
	.st11{fill:url(#SVGID_00000064330654777967082330000002587526696972358786_);}
</style>
<g id="OBJECTS">
	
		<linearGradient id="SVGID_1_" gradientUnits="userSpaceOnUse" x1="252.819" y1="209.4321" x2="244.0453" y2="171.3313" gradientTransform="matrix(0.9995 -3.088741e-02 -3.088741e-02 -0.9995 16.9137 487.6134)">
		<stop  offset="0" style="stop-color:#BC17FA"/>
		<stop  offset="1" style="stop-color:#8400C0"/>
	</linearGradient>
	<path class="st0" d="M260.4,316.6c0,0,14.4-0.2,27.1-29.3c3.8-8.6,4.9-16.8-0.5-17.5c-10.9-1.6-12.4,39.9-47.7,30.8
		c-24.9,2.5-2.5,9.9-0.7,10.4c1.8,0.5,13.5,9.6,13.5,9.6L260.4,316.6z"/>
	
		<linearGradient id="SVGID_00000096031668095171723000000001890477489772428686_" gradientUnits="userSpaceOnUse" x1="201.8025" y1="183.5918" x2="193.5781" y2="147.8865" gradientTransform="matrix(0.9958 -9.115401e-02 -9.115401e-02 -0.9958 48.5311 458.2887)">
		<stop  offset="0" style="stop-color:#BC17FA"/>
		<stop  offset="1" style="stop-color:#8400C0"/>
	</linearGradient>
	<path style="fill:url(#SVGID_00000096031668095171723000000001890477489772428686_);" d="M233.3,300.1c0,0,14.4-1.1,25.3-30.9
		c3.2-8.8,2.8-13.5-2.7-14c-11-1-8.9,37.1-44.7,30.2c-24.7,4-1.9,10-0.1,10.4c1.8,0.4,14.1,8.8,14.1,8.8L233.3,300.1z"/>
	
		<linearGradient id="SVGID_00000162321050806958224410000003721975353567202236_" gradientUnits="userSpaceOnUse" x1="315.1183" y1="305.3204" x2="307.3975" y2="271.8124" gradientTransform="matrix(0.99 0.12 0.12 -0.99 -70.02 548.99)">
		<stop  offset="0" style="stop-color:#BC17FA"/>
		<stop  offset="1" style="stop-color:#8400C0"/>
	</linearGradient>
	<path style="fill:url(#SVGID_00000162321050806958224410000003721975353567202236_);" d="M276.2,317.7c0,0,9.6,3.3,20.7-10.6
		c5.9-7.3,7.4-15.8,2.2-17.4c-10.6-3.3-21,25.3-46,23.9c-25-1.4-9.9,8.5-8.3,9.2c1.7,0.7,20.7,2.4,20.7,2.4L276.2,317.7z"/>
	
		<linearGradient id="SVGID_00000052085319490209295670000011828257042391973292_" gradientUnits="userSpaceOnUse" x1="198.9199" y1="202.6828" x2="298.5132" y2="162.2168" gradientTransform="matrix(1 0 0 -1 0 502)">
		<stop  offset="0" style="stop-color:#BC17FA"/>
		<stop  offset="1" style="stop-color:#8400C0"/>
	</linearGradient>
	<path style="fill:url(#SVGID_00000052085319490209295670000011828257042391973292_);" d="M240.1,300.7c0,0,3.2,10.1,20.4,15.3
		c17.3,5.2,31-9.9,41-6.9s-0.8,19.9-23.6,25.7s-52.8-3.2-71.4-17.7c-16.2-12.7-35.7-14.8-32.2,2.3c-10.7,3.1-14.2-14.2-14.2-15
		v-11.6l15.3-8.2l21.9,3.4l27.6,9.2L240.1,300.7z"/>
	
		<linearGradient id="SVGID_00000072258760324883480780000012485658949405512586_" gradientUnits="userSpaceOnUse" x1="148.1331" y1="219.2015" x2="275.4222" y2="219.2015" gradientTransform="matrix(1 0 0 -1 0 502)">
		<stop  offset="0" style="stop-color:#8400C0"/>
		<stop  offset="1" style="stop-color:#BC17FA"/>
	</linearGradient>
	<path style="fill:url(#SVGID_00000072258760324883480780000012485658949405512586_);" d="M240.1,300.7c0.9-0.8,2-1.3,3.2-1.3
		c5-0.8,16.8-2,20-5.8c2.4-2.9,2-7.8-7.3-10.2c-9.3-2.3-24-0.5-29.8-3.5c-4.3-2.2-15.1-9.4-24.7-14.3c-3.3-1.7-12.7-8.5-27.9-5.1
		c-20,2.6-26.1-3.9-26.2-14.1L137.2,265l6.6,26.9c0,0,13.5,8,15.9,14.3c4.8-0.3,10.9,12.4,14.6,13.2c-6.1-16.2,3.8-27.6,25.3-22.2
		C233.6,305.8,240.1,300.7,240.1,300.7z"/>
	
		<linearGradient id="SVGID_00000080922255176727515970000013542541605115878072_" gradientUnits="userSpaceOnUse" x1="-1145.1907" y1="878.1371" x2="-1153.9644" y2="840.0211" gradientTransform="matrix(-0.9995 3.088749e-02 3.088749e-02 0.9995 -934.9137 -612.8033)">
		<stop  offset="0" style="stop-color:#00F2FE"/>
		<stop  offset="1" style="stop-color:#534DDB"/>
	</linearGradient>
	<path style="fill:url(#SVGID_00000080922255176727515970000013542541605115878072_);" d="M239.6,183.4c0,0-14.4,0.2-27.1,29.3
		c-3.8,8.6-4.9,16.8,0.5,17.5c10.9,1.6,12.4-39.9,47.7-30.8c24.9-2.5,2.5-9.9,0.7-10.4c-1.8-0.5-13.5-9.6-13.5-9.6L239.6,183.4z"/>
	
		<linearGradient id="SVGID_00000173134437059526070890000008471733000062412698_" gradientUnits="userSpaceOnUse" x1="-1153.3062" y1="935.4442" x2="-1161.5305" y2="899.7389" gradientTransform="matrix(-0.9958 9.115393e-02 9.115393e-02 0.9958 -966.5311 -583.4888)">
		<stop  offset="0" style="stop-color:#00F2FE"/>
		<stop  offset="1" style="stop-color:#534DDB"/>
	</linearGradient>
	<path style="fill:url(#SVGID_00000173134437059526070890000008471733000062412698_);" d="M266.7,199.9c0,0-14.3,1.1-25.3,30.9
		c-3.2,8.9-2.8,13.5,2.7,14c11,1,8.9-37.1,44.7-30.2c24.7-4,1.9-10.1,0.1-10.4c-1.8-0.4-14.1-8.8-14.1-8.8L266.7,199.9z"/>
	
		<linearGradient id="SVGID_00000098936651796914462400000002262020160686082955_" gradientUnits="userSpaceOnUse" x1="-1171.8462" y1="756.841" x2="-1179.567" y2="723.3177" gradientTransform="matrix(-0.99 -0.12 -0.12 0.99 -847.98 -674.18)">
		<stop  offset="0" style="stop-color:#00F2FE"/>
		<stop  offset="1" style="stop-color:#534DDB"/>
	</linearGradient>
	<path style="fill:url(#SVGID_00000098936651796914462400000002262020160686082955_);" d="M223.8,182.3c0,0-9.6-3.3-20.7,10.6
		c-5.9,7.3-7.4,15.8-2.2,17.4c10.6,3.3,21-25.3,46-24c25,1.4,9.9-8.5,8.3-9.2s-20.7-2.4-20.7-2.4L223.8,182.3z"/>
	
		<linearGradient id="SVGID_00000157276076334570433920000008648298913310911925_" gradientUnits="userSpaceOnUse" x1="-1219.6577" y1="826.4744" x2="-1120.0643" y2="786.0084" gradientTransform="matrix(-1 0 0 1 -918 -627.19)">
		<stop  offset="0" style="stop-color:#534DDB"/>
		<stop  offset="1" style="stop-color:#00F2FE"/>
	</linearGradient>
	<path style="fill:url(#SVGID_00000157276076334570433920000008648298913310911925_);" d="M259.9,199.3c0,0-3.2-10.1-20.4-15.3
		s-31,9.9-41,6.9c-10-3,0.8-19.8,23.6-25.7c22.8-5.9,52.8,3.2,71.4,17.7c16.2,12.7,35.7,14.8,32.2-2.3c-3.6-17.1,14.2,14.2,14.2,15
		v11.6l-15.3,8.2l-21.9-3.4l-27.6-9.2L259.9,199.3z"/>
	
		<linearGradient id="SVGID_00000043436898667962039810000018073285453797373058_" gradientUnits="userSpaceOnUse" x1="-1280.7767" y1="845.7745" x2="-1153.4877" y2="845.7745" gradientTransform="matrix(-1 0 0 1 -918 -627.19)">
		<stop  offset="0" style="stop-color:#534DDB"/>
		<stop  offset="1" style="stop-color:#00F2FE"/>
	</linearGradient>
	<path style="fill:url(#SVGID_00000043436898667962039810000018073285453797373058_);" d="M259.9,199.3c-0.9,0.8-2,1.3-3.2,1.3
		c-5,0.8-16.8,2-20,5.8c-2.4,2.9-2,7.8,7.3,10.2s24,0.5,29.8,3.5c4.3,2.2,15.1,9.4,24.7,14.3c3.3,1.7,12.7,8.5,27.9,5.1
		c20-2.6,27.5,4.2,26.2,14.1c2.1,12,10.1-18.8,10.1-18.8l-6.6-26.9c0,0-13.5-8-15.9-14.3c-4.8,0.3-10.9-12.4-14.6-13.2
		c6.1,16.3-3.8,27.7-25.3,22.2C266.4,194.2,259.9,199.3,259.9,199.3z"/>
	
		<linearGradient id="SVGID_00000160161075161776898130000006748545559599328651_" gradientUnits="userSpaceOnUse" x1="166.869" y1="366.3709" x2="230.1925" y2="123.0409" gradientTransform="matrix(1 0 0 -1 0 502)">
		<stop  offset="0" style="stop-color:#BC17FA"/>
		<stop  offset="1" style="stop-color:#8400C0"/>
	</linearGradient>
	<path style="fill:url(#SVGID_00000160161075161776898130000006748545559599328651_);" d="M240.8,375.7c0-12.5-8.2-23.6-20.2-27.3
		c-54.4-16.2-85.3-73.4-69.1-127.8c9.9-33.2,35.9-59.1,69.1-69.1c12-3.6,20.2-14.7,20.2-27.3l0,0c-69.4,5-121.6,65.4-116.6,134.8
		C128.8,321.5,178.4,371.2,240.8,375.7z"/>
	
		<linearGradient id="SVGID_00000039850983066760697830000016943669909858658998_" gradientUnits="userSpaceOnUse" x1="264.8003" y1="386.0701" x2="332.7318" y2="143.9914" gradientTransform="matrix(1 0 0 -1 0 502)">
		<stop  offset="0" style="stop-color:#00F2FE"/>
		<stop  offset="1" style="stop-color:#534DDB"/>
	</linearGradient>
	<path style="fill:url(#SVGID_00000039850983066760697830000016943669909858658998_);" d="M259.2,124.3L259.2,124.3
		c0,12.5,8.2,23.6,20.2,27.3c54.4,16.2,85.3,73.4,69.1,127.8c-9.9,33.2-35.9,59.1-69.1,69.1c-12,3.6-20.2,14.7-20.2,27.3l0,0
		c69.4-5,121.6-65.4,116.6-134.8C371.2,178.5,321.6,128.8,259.2,124.3z"/>
</g>
</svg>
